<?xml version="1.0" encoding="UTF-8"?>
<svg id="Ebene_1" xmlns="http://www.w3.org/2000/svg" version="1.1" viewBox="0 0 28.35 28.35">
  <!-- Generator: Adobe Illustrator 30.2.0, SVG Export Plug-In . SVG Version: 2.1.1 Build 105)  -->
  <defs>
    <style>
      .st0 {
        fill: #2e3278;
      }
    </style>
  </defs>
  <path class="st0" d="M22.68,11.34c3.13,0,5.67-2.54,5.67-5.67S25.8,0,22.68,0c-2.27,0-4.23,1.34-5.13,3.28l-1.51-.56c.02-.12.03-.24.03-.35,0-1.3-1.06-2.36-2.36-2.36s-2.36,1.06-2.36,2.36,1.06,2.36,2.36,2.36c.82,0,1.58-.44,2-1.12l1.52.56c-.13.48-.21.98-.21,1.51,0,.62.1,1.21.29,1.77l-5.2,2.2c-.95-1.8-2.84-3.03-5.01-3.03-.7,0-1.38.14-2,.37l-1.31-2.75c.58-.44.94-1.13.94-1.88,0-1.3-1.06-2.36-2.36-2.36S0,1.06,0,2.36s1.06,2.36,2.36,2.36c.19,0,.39-.03.57-.07l1.3,2.74c-1.68.98-2.82,2.81-2.82,4.89,0,1.96,1,3.69,2.52,4.71l-.86,1.55c-.23-.07-.47-.11-.71-.11-1.3,0-2.36,1.06-2.36,2.36s1.06,2.36,2.36,2.36,2.36-1.06,2.36-2.36c0-.7-.31-1.35-.83-1.79l.86-1.55c.71.32,1.5.51,2.33.51,1.3,0,2.49-.44,3.45-1.18l1.86,2.05c-.94,1.01-1.53,2.37-1.53,3.86,0,.29.03.57.07.85l-2.19.52c-.38-.82-1.2-1.37-2.14-1.37-1.3,0-2.36,1.06-2.36,2.36s1.06,2.36,2.36,2.36,2.36-1.06,2.36-2.36c0-.03,0-.05,0-.08l2.18-.52c.75,2.26,2.87,3.9,5.38,3.9,3.13,0,5.67-2.54,5.67-5.67,0-.97-.25-1.88-.68-2.68l2.78-1.81c.44.45,1.04.71,1.68.71,1.3,0,2.36-1.06,2.36-2.36s-1.06-2.36-2.36-2.36-2.36,1.06-2.36,2.36c0,.3.06.59.17.86l-2.78,1.81c-.56-.72-1.28-1.29-2.11-1.68l2.31-6.39c.47.13.96.2,1.47.2ZM22.68.94c2.61,0,4.72,2.12,4.72,4.72,0,1.18-.44,2.26-1.16,3.09-.33-.87-1.01-1.57-1.88-1.91.42-.43.68-1.01.68-1.65,0-1.3-1.06-2.36-2.36-2.36s-2.36,1.06-2.36,2.36c0,.64.26,1.22.68,1.65-.87.34-1.55,1.04-1.88,1.91-.72-.83-1.16-1.91-1.16-3.09,0-2.61,2.12-4.72,4.72-4.72ZM2.36,12.28c0-2.61,2.12-4.72,4.72-4.72s4.72,2.12,4.72,4.72c0,1.18-.44,2.26-1.16,3.09-.33-.87-1.01-1.57-1.88-1.91.42-.43.68-1.01.68-1.65,0-1.3-1.06-2.36-2.36-2.36s-2.36,1.06-2.36,2.36c0,.64.26,1.22.68,1.65-.87.34-1.55,1.04-1.88,1.91-.72-.83-1.16-1.91-1.16-3.09ZM21.26,22.68c0,1.18-.44,2.26-1.16,3.09-.33-.87-1.01-1.57-1.88-1.91.42-.43.68-1.01.68-1.65,0-1.3-1.06-2.36-2.36-2.36s-2.36,1.06-2.36,2.36c0,.64.26,1.22.68,1.65-.87.34-1.55,1.04-1.88,1.91-.72-.83-1.16-1.91-1.16-3.09,0-2.61,2.12-4.72,4.72-4.72s4.72,2.12,4.72,4.72ZM18.01,17.21c-.47-.13-.96-.2-1.47-.2-1.3,0-2.49.44-3.45,1.18l-1.86-2.05c.94-1.01,1.53-2.37,1.53-3.86,0-.62-.1-1.21-.29-1.77l5.2-2.2c.58,1.1,1.52,1.98,2.65,2.51l-2.31,6.39Z"/>
</svg>