<?xml version="1.0" encoding="UTF-8"?>
<svg id="Ebene_1" xmlns="http://www.w3.org/2000/svg" version="1.1" viewBox="0 0 28.35 28.35">
  <!-- Generator: Adobe Illustrator 30.2.0, SVG Export Plug-In . SVG Version: 2.1.1 Build 105)  -->
  <defs>
    <style>
      .st0 {
        fill: #2e3278;
      }

      .st1 {
        fill: #fff;
      }
    </style>
  </defs>
  <rect class="st1" y="-.28" width="28.63" height="28.63"/>
  <path class="st0" d="M21.88,6.95c-.93,0-1.75.45-2.27,1.14l-5-.59c.04-.19.06-.39.06-.6,0-1.57-1.28-2.85-2.85-2.85s-2.85,1.28-2.85,2.85c0,.77.31,1.47.81,1.99l-2.39,3.92c-.21-.05-.42-.08-.65-.08-1.57,0-2.85,1.28-2.85,2.85s1.28,2.85,2.85,2.85c.69,0,1.32-.25,1.81-.66l3.78,2.31c-.14.33-.21.7-.21,1.08,0,1.57,1.28,2.85,2.85,2.85s2.85-1.28,2.85-2.85-1.28-2.85-2.85-2.85c-.71,0-1.35.26-1.85.69l-3.76-2.29c.15-.35.23-.73.23-1.12,0-.87-.39-1.65-1.01-2.17l2.32-3.81c.29.1.59.15.91.15.55,0,1.06-.16,1.49-.43l.84,3.27c-.7.52-1.15,1.35-1.15,2.28,0,1.57,1.28,2.85,2.85,2.85s2.85-1.28,2.85-2.85-1.28-2.85-2.85-2.85c-.16,0-.31.01-.46.04l-.83-3.23,4.51.53c-.02.14-.04.28-.04.43,0,1.57,1.28,2.85,2.85,2.85s2.85-1.28,2.85-2.85c0-1.57-1.28-2.85-2.85-2.85ZM6.75,17.1c-.84,0-1.52-.68-1.52-1.52s.68-1.52,1.52-1.52,1.52.68,1.52,1.52-.68,1.52-1.52,1.52ZM16.5,21.16c0,.84-.68,1.52-1.52,1.52s-1.52-.68-1.52-1.52.68-1.52,1.52-1.52,1.52.68,1.52,1.52ZM17.37,14.87c0,.84-.68,1.52-1.52,1.52s-1.52-.68-1.52-1.52.68-1.52,1.52-1.52,1.52.68,1.52,1.52ZM11.82,8.43c-.84,0-1.52-.68-1.52-1.52s.68-1.52,1.52-1.52,1.52.68,1.52,1.52-.68,1.52-1.52,1.52ZM21.88,11.31c-.84,0-1.52-.68-1.52-1.52s.68-1.52,1.52-1.52,1.52.68,1.52,1.52-.68,1.52-1.52,1.52Z"/>
</svg>