<?xml version="1.0" encoding="UTF-8"?>
<svg id="Ebene_1" xmlns="http://www.w3.org/2000/svg" version="1.1" viewBox="0 0 28.35 28.35">
  <!-- Generator: Adobe Illustrator 30.2.0, SVG Export Plug-In . SVG Version: 2.1.1 Build 105)  -->
  <defs>
    <style>
      .st0 {
        fill: #2e3278;
      }
    </style>
  </defs>
  <path class="st0" d="M20.73,16.79c1.14-2.78-.31-5.57-1.52-6.9-1.03-1.12-3.93-3.17-7.09-2.04,1.08-2.94-.71-6.24-2.12-7.85l-1.13.98c.17.2,4.15,4.87.7,8.03-3.46,3.16-7.86-1.15-8.04-1.34l-1.06,1.05c1.5,1.51,4.65,3.52,7.68,2.73-1.25,2.59-.2,5.26,1.52,7.15,1.26,1.38,3.74,2.95,6.5,2.2-.86,2.86.86,5.99,2.22,7.55l1.13-.98c-.17-.2-4.15-4.87-.7-8.03,3.47-3.16,7.86,1.15,8.04,1.34l1.06-1.05c-1.42-1.43-4.31-3.32-7.19-2.84ZM10.77,17.59c-1.07-1.18-3.22-4.23.04-7.22,3.67-3.35,7.26.48,7.29.52.14.16,3.49,3.9-.09,7.16-3.54,3.23-6.66.18-7.25-.46Z"/>
  <path class="st0" d="M15.7,18.37l2.73-2.5c.26-.62.3-1.24.22-1.8l-4.8,4.39c.56.13,1.18.13,1.85-.09Z"/>
  <path class="st0" d="M17.78,11.97l-5.93,5.42c.25.22.59.47,1,.69l5.52-5.04c-.18-.44-.4-.8-.58-1.06Z"/>
  <path class="st0" d="M16.27,10.61l-5.69,5.2c.21.39.46.72.67.98l5.98-5.46c-.19-.18-.53-.45-.97-.72Z"/>
  <path class="st0" d="M13.78,9.98l-3.68,3.36c-.09.54-.04,1.05.09,1.51l5.13-4.69c-.47-.15-.99-.24-1.54-.19Z"/>
  <path class="st0" d="M7.33,9.19l2.73-2.5c.26-.63.3-1.24.22-1.8l-4.8,4.38c.56.13,1.18.13,1.85-.09Z"/>
  <path class="st0" d="M10,3.86c-.18-.44-.4-.8-.58-1.07l-5.93,5.42c.25.22.59.47,1,.69l5.52-5.04Z"/>
  <path class="st0" d="M18.75,24.85c.21.39.46.72.68.98l5.98-5.46c-.19-.18-.53-.45-.97-.72l-5.69,5.2Z"/>
  <path class="st0" d="M21.95,19.03l-3.68,3.36c-.1.53-.04,1.05.09,1.51l5.13-4.69c-.47-.16-.99-.24-1.54-.19Z"/>
</svg>