<?xml version="1.0" encoding="UTF-8"?>
<svg id="Ebene_1" xmlns="http://www.w3.org/2000/svg" version="1.1" viewBox="0 0 28.35 28.35">
  <!-- Generator: Adobe Illustrator 30.2.0, SVG Export Plug-In . SVG Version: 2.1.1 Build 105)  -->
  <defs>
    <style>
      .st0 {
        fill: #2e3278;
      }
    </style>
  </defs>
  <rect class="st0" x="14.64" y="9.59" width=".99" height="1.12"/>
  <rect class="st0" x="19.63" y="9.59" width=".99" height="1.12"/>
  <path class="st0" d="M17.18,14.03c.4.04.89.09,1.36.23v-2.49h-1.82v2.22c.15.01.31.02.46.04Z"/>
  <path class="st0" d="M12.67,13.43c.42.11.89.22,1.42.3.02,0,.04,0,.06,0v-4.83h6.97v5.43c.48-.16.99-.33,1.48-.49v-4.94h.71l-.74-5.07h-9.87l-.74,5.07h.71v4.53Z"/>
  <path class="st0" d="M28.02,14.48c-.29-.37-1.12-.49-1.78-.37-.33.05-5.16,1.66-5.16,1.66.14.49.36,1.37-.45,2.28-.56.55-1.42.71-2.53.69-1.11-.02-2.32-.22-3.25-.35-.3-.04-1.14-.17-1.14-.17,0,0,.59-.31,1.39-.34,1-.04,1.79-.03,2.24,0,.5.03,1.21.1,1.51.11,1.36.06,1.69-.93,1.69-1.32.02-1.11-.54-1.48-2.26-1.64-1.11-.1-2.3-.19-3.13-.3-1.6-.23-2.75-.74-3.33-.8-.4-.04-1.45-.26-2.44.66-1.82,1.7-4.53,3.02-6.39,3.8l-.76-.8-2.22,2.48,5.43,5.72,2.31-2.42-.67-.7c1.7-1.32,3.51-1.51,5.08-1.58.31-.01,3.37-.01,6.19.37.57.04,1.05-.3,1.05-.3,4.24-3.06,7.85-4.74,7.85-4.74.86-.36,1.11-.8,1.1-1.13-.03-.61-.33-.81-.33-.82ZM5.3,23.83c-.28,0-.51-.26-.51-.58s.23-.58.51-.58.51.26.51.58-.23.58-.51.58Z"/>
</svg>