<?xml version="1.0" encoding="UTF-8"?>
<svg id="Ebene_1" xmlns="http://www.w3.org/2000/svg" version="1.1" viewBox="0 0 28.35 28.35">
  <!-- Generator: Adobe Illustrator 30.2.0, SVG Export Plug-In . SVG Version: 2.1.1 Build 105)  -->
  <defs>
    <style>
      .st0 {
        fill: #2e3278;
      }
    </style>
  </defs>
  <path class="st0" d="M27.88,8.57c-.09-.1-.26-.29-.45-.45-.19-.16-.45-.41-.76-.57-.29-.19-.67-.35-1.05-.51-.38-.16-.83-.25-1.27-.32-.48-.1-.92-.1-1.43-.06-.48.03-.95.09-1.46.22-.48.13-.92.29-1.4.48-.45.22-.86.45-1.24.73-.38.29-.76.57-1.08.89-.64.64-1.15,1.4-1.46,2.1-.16.35-.29.7-.38,1.05-.03.09-.03.16-.05.25l-.32-.28c.12-.32.21-.64.37-.95-.22-.25-.38-.51-.54-.76-.29-.48-.54-1.02-.76-1.5-.1-.25-.19-.48-.29-.73-.06-.22-.13-.45-.19-.67-.03-.22-.1-.41-.13-.57-.03-.16-.03-.32-.06-.45-.03-.25-.03-.38-.03-.38,0,0,.03.13.06.38.03.13.03.26.1.45.06.16.09.35.16.54.06.19.16.41.26.64.1.22.22.44.32.67.26.44.54.95.86,1.4.13.19.29.38.41.54.51-.95,1.15-1.82,1.88-2.58-.06-.32-.16-.6-.25-.89-.13-.35-.26-.7-.41-1.05-.29-.67-.67-1.27-1.08-1.85-.19-.29-.45-.54-.67-.8-.22-.25-.48-.51-.7-.76-.22-.22-.45-.48-.7-.7-.22-.22-.45-.41-.61-.6-.16-.16-.35-.32-.45-.41-.13-.09-.19-.16-.19-.16,0,0-.06.06-.19.16-.1.1-.29.26-.45.45-.16.19-.41.45-.57.76-.19.29-.35.67-.51,1.05-.16.38-.25.83-.32,1.27-.1.48-.1.92-.06,1.43.03.48.1.95.22,1.47.08.28.19.55.28.83L.27,17.96s.67,1.24,2.16,0l8.85-7.48,8.28,7.42c1.72,1.24,2.36,0,2.36,0l-4.18-3.78c.22,0,.45.02.68.02.35,0,.73-.03,1.11-.06.38-.03.76-.09,1.12-.16.38-.1.73-.16,1.08-.29.35-.13.7-.26,1.05-.41.67-.29,1.27-.67,1.85-1.08.29-.19.54-.45.8-.67.26-.22.51-.48.76-.7.22-.22.48-.45.7-.7.22-.22.41-.45.6-.6.16-.16.32-.35.41-.45.09-.13.16-.19.16-.19,0,0-.1-.13-.19-.25ZM22.53,9.88c-.13.03-.26.03-.45.09-.16.06-.35.1-.54.16-.19.06-.41.16-.64.25-.22.1-.45.22-.67.32-.48.26-.96.54-1.4.86-.79.54-1.5,1.14-2.08,1.67l-.43-.39c.64-.5,1.42-1.06,2.29-1.56.51-.29,1.02-.54,1.5-.76.25-.1.48-.19.73-.29.22-.06.45-.13.67-.19.22-.03.41-.09.57-.13.16-.03.32-.03.45-.06.25-.03.38-.03.38-.03,0,0-.13.03-.38.06Z"/>
  <path class="st0" d="M3.24,18.6v8.37s-.03.48.45.48h5.44v-4.46s-.06-.73.64-.73h2.26c.86,0,.8.73.8.73v4.46h5.35c.6,0,.57-.6.57-.6v-8.25l-7.51-6.69-7.99,6.69Z"/>
</svg>