<?xml version="1.0" encoding="UTF-8"?>
<svg id="Ebene_1" xmlns="http://www.w3.org/2000/svg" version="1.1" viewBox="0 0 28.35 28.35">
  <!-- Generator: Adobe Illustrator 30.2.0, SVG Export Plug-In . SVG Version: 2.1.1 Build 105)  -->
  <defs>
    <style>
      .st0 {
        fill: #2e3278;
      }
    </style>
  </defs>
  <path class="st0" d="M24.47,4.42c-1.27,0-2.39.61-3.1,1.56l-6.8-.8c.05-.26.09-.53.09-.81,0-2.14-1.74-3.87-3.88-3.87s-3.88,1.74-3.88,3.87c0,1.05.42,2,1.1,2.7l-3.25,5.34c-.28-.07-.58-.1-.88-.1-2.14,0-3.88,1.74-3.88,3.87s1.74,3.87,3.88,3.87c.94,0,1.8-.34,2.47-.89l5.15,3.14c-.19.45-.29.95-.29,1.47,0,2.14,1.74,3.88,3.88,3.88s3.88-1.74,3.88-3.88-1.74-3.88-3.88-3.88c-.96,0-1.84.36-2.52.94l-5.12-3.12c.2-.47.31-.99.31-1.53,0-1.18-.53-2.24-1.37-2.95l3.16-5.19c.39.13.81.21,1.24.21.74,0,1.44-.22,2.03-.58l1.15,4.45c-.95.71-1.57,1.83-1.57,3.1,0,2.14,1.74,3.87,3.88,3.87s3.88-1.74,3.88-3.87-1.74-3.87-3.88-3.87c-.21,0-.42.02-.63.05l-1.14-4.4,6.14.72c-.03.19-.05.38-.05.58,0,2.14,1.74,3.87,3.88,3.87s3.87-1.74,3.87-3.87c0-2.14-1.74-3.88-3.87-3.88ZM3.88,18.24c-1.14,0-2.07-.93-2.07-2.07s.93-2.07,2.07-2.07,2.07.93,2.07,2.07-.93,2.07-2.07,2.07ZM17.15,23.76c0,1.14-.93,2.07-2.07,2.07s-2.07-.93-2.07-2.07.93-2.07,2.07-2.07,2.07.93,2.07,2.07ZM18.34,15.2c0,1.14-.93,2.07-2.07,2.07s-2.07-.93-2.07-2.07.93-2.07,2.07-2.07,2.07.93,2.07,2.07ZM10.78,6.43c-1.14,0-2.07-.93-2.07-2.07s.93-2.07,2.07-2.07,2.07.93,2.07,2.07-.93,2.07-2.07,2.07ZM24.47,10.36c-1.14,0-2.07-.93-2.07-2.07s.93-2.07,2.07-2.07,2.07.93,2.07,2.07-.93,2.07-2.07,2.07Z"/>
</svg>